<?xml version="1.0"?>
<!-- Created with xTool Creative Space (https://www.xtool.com/pages/software) -->
<svg xmlns="http://www.w3.org/2000/svg" xmlns:xlink="http://www.w3.org/1999/xlink" xmlns:xcs="https://www.xtool.com/pages/software" version="1.1" preserveAspectRatio="xMinYMin meet" width="309.99999999999864mm" height="309.99999999999864mm" viewBox="45.00000000000076 -4.99999999999924 309.99999999999864 309.99999999999864" xcs:version="2.5.20"><style>svg * { vector-effect: non-scaling-stroke; stroke-width: 1px; }</style>
<path transform="matrix(1,0,0,1,9.66338e-13,7.53175e-13)" stroke="#000000" fill="none" d="M45,150C45,64.39586377622706 114.39586377622697,-4.999999999999915 199.99999999999991,-4.999999999999943C285.60413622377285,-4.999999999999943 354.99999999999983,64.39586377622702 354.9999999999999,149.99999999999994C354.9999999999999,235.6041362237729 285.6041362237729,304.99999999999994 199.99999999999994,304.99999999999994C114.39586377622702,304.99999999999994 45.00000000000003,235.60413622377297 45,150Z" fill-rule="nonzero"></path><path transform="matrix(1,0,0,1,0,7.10543e-15)" stroke="#000000" fill="none" d="M246.4240000000002,233.5L235.0000000000001,233.5L165.00000000000009,233.5L165.00000000000009,143.5L235.0000000000001,143.5L235.0000000000001,219.93800000000002L246.42400000000015,219.938M246.4240000000002,219.93800000000005L246.42400000000012,172.5L289.4240000000001,172.5L289.4240000000001,233.5L246.42400000000012,233.5" fill-rule="evenodd"></path></svg>