<?xml version="1.0"?>
<!-- Created with xTool Creative Space (https://www.xtool.com/pages/software) -->
<svg xmlns="http://www.w3.org/2000/svg" xmlns:xlink="http://www.w3.org/1999/xlink" xmlns:xcs="https://www.xtool.com/pages/software" version="1.1" preserveAspectRatio="xMinYMin meet" width="310.0000000000003mm" height="19.86324854253749mm" viewBox="62.50021673885893 141.18970203397703 310.0000000000003 19.86324854253749" xcs:version="2.5.20"><style>svg * { vector-effect: non-scaling-stroke; stroke-width: 1px; }</style>
<path transform="matrix(1.127275,0,0,1.127275,62.499866,141.189702)" stroke="#000000" fill="none" d="M149.00399999999996,8.746999999999943C148.91599999999997,9.113999999999944 148.81599999999997,9.714999999999943 148.65899999999996,10.402999999999944C148.50299999999996,11.091999999999944 148.28899999999996,11.864999999999943 147.97499999999997,12.620999999999944C147.66199999999998,13.374999999999943 147.24699999999999,14.109999999999943 146.58099999999996,14.844999999999944C145.91599999999997,15.579999999999943 144.99999999999997,16.314999999999944 144.02099999999996,16.775999999999943C143.04099999999997,17.23699999999994 141.99999999999997,17.42299999999994 141.17699999999996,17.529999999999944C140.35399999999998,17.637999999999945 139.75099999999998,17.662999999999943 116.33299999999997,17.529999999999944C92.91399999999997,17.39699999999994 46.696999999999974,17.102999999999945 23.52599999999997,16.915999999999944C0.35699999999997156,16.728999999999942 0.24299999999997157,16.647999999999943 0.1679999999999716,16.507999999999942C0.09299999999997158,16.36799999999994 0.05499999999997158,16.167999999999942 0.029999999999971577,14.992999999999943C0.004999999999971578,13.816999999999943 -0.007000000000028422,11.664999999999942 0.004999999999971578,10.483999999999943C0.01699999999997158,9.300999999999943 0.05499999999997158,9.086999999999943 0.14299999999997157,8.979999999999944C0.2309999999999716,8.873999999999944 0.3689999999999716,8.873999999999944 21.907999999999973,9.033999999999944C43.446999999999974,9.193999999999944 86.45699999999997,9.513999999999943 108.02599999999997,9.675999999999943C129.59499999999997,9.835999999999943 129.75899999999996,9.835999999999943 129.89099999999996,9.748999999999944C130.02199999999996,9.661999999999944 130.12299999999996,9.486999999999943 130.19199999999998,9.133999999999943C130.25999999999996,8.780999999999944 130.29799999999997,8.244999999999942 130.41199999999998,7.550999999999943C130.52399999999997,6.855999999999943 130.71199999999996,6.001999999999943 131.08299999999997,5.158999999999943C131.45299999999997,4.317999999999943 132.00599999999997,3.4899999999999434 132.65299999999996,2.781999999999943C133.29799999999997,2.073999999999943 134.03899999999996,1.4859999999999431 134.84199999999998,1.0659999999999432C135.64699999999996,0.6439999999999432 136.51299999999998,0.39099999999994317 137.39799999999997,0.23699999999994315C138.28299999999996,0.08399999999994316 139.18599999999998,0.029999999999943155 140.42999999999998,0.008999999999943156C141.67199999999997,-0.010000000000056844 143.25399999999996,0.0029999999999431566 165.53199999999998,0.029999999999943155C187.80899999999997,0.05699999999994316 230.78599999999997,0.09599999999994316 252.39899999999997,0.17099999999994317C274.01199999999994,0.24399999999994315 274.264,0.34999999999994313 274.43999999999994,0.48399999999994314C274.615,0.6179999999999432 274.7149999999999,0.7779999999999432 274.803,2.160999999999943C274.89099999999996,3.543999999999943 274.967,6.147999999999943 274.991,7.536999999999943C275.01699999999994,8.926999999999943 274.991,9.100999999999944 274.847,9.253999999999943C274.703,9.407999999999943 274.43999999999994,9.540999999999944 273.5849999999999,9.621999999999943C272.73199999999997,9.700999999999944 271.288,9.727999999999943 250.76499999999996,9.453999999999944C230.24299999999997,9.179999999999943 190.64899999999997,8.605999999999943 170.63099999999997,8.319999999999943C150.61199999999997,8.031999999999943 150.17199999999997,8.031999999999943 149.87099999999998,8.045999999999943C149.56899999999996,8.057999999999943 149.40699999999998,8.084999999999944 149.28699999999998,8.165999999999944C149.16799999999998,8.244999999999942 149.09199999999998,8.379999999999944 149.00399999999996,8.746999999999943ZM137.55099962889494,8.671458649630734C137.55099962889494,7.69096763622202 138.34503965489102,6.895999993373137 139.32645828515254,6.895999993373137C140.30694929856125,6.895999993373137 141.10098932455733,7.69096763622202 141.10098932455733,8.671458649630734C141.10098932455733,9.65194966303945 140.30694929856125,10.44691730588833 139.32645828515254,10.44691730588833C138.34503965489102,10.44691730588833 137.55099962889494,9.65194966303945 137.55099962889494,8.671458649630734Z" fill-rule="evenodd"></path></svg>