<?xml version="1.0"?>
<!-- Created with xTool Creative Space (https://www.xtool.com/pages/software) -->
<svg xmlns="http://www.w3.org/2000/svg" xmlns:xlink="http://www.w3.org/1999/xlink" xmlns:xcs="https://www.xtool.com/pages/software" version="1.1" preserveAspectRatio="xMinYMin meet" width="309.9999999999999mm" height="309.9999999999999mm" viewBox="44.99999999999998 -5.000000000000011 309.9999999999999 309.9999999999999" xcs:version="2.5.20"><style>svg * { vector-effect: non-scaling-stroke; stroke-width: 1px; }</style>
<path transform="matrix(1,0,0,1,0,-1.42109e-14)" stroke="#000000" fill="none" d="M45,150C45,64.39586377622706 114.39586377622697,-4.999999999999915 199.99999999999991,-4.999999999999943C285.60413622377285,-4.999999999999943 354.99999999999983,64.39586377622702 354.9999999999999,149.99999999999994C354.9999999999999,235.6041362237729 285.6041362237729,304.99999999999994 199.99999999999994,304.99999999999994C114.39586377622702,304.99999999999994 45.00000000000003,235.60413622377297 45,150Z" fill-rule="nonzero"></path><ellipse transform="matrix(0.00596178,0,0,0.00596178,196.5,146.5) scale(100)" stroke="#000000" fill="none" cx="5.870725730872067" cy="5.870725634028304" rx="5.870725730872067" ry="5.870725634028304"></ellipse><path transform="matrix(1,0,0,1,67,17)" stroke="#000000" fill="none" d="M -2.0000 133.0000 C -2.0000 132.2855 -1.6188 131.6252 -1.0000 131.2680 C -0.3812 130.9107 0.3812 130.9107 1.0000 131.2680 C 1.6188 131.6252 2.0000 132.2855 2.0000 133.0000 C 2.0000 133.7145 1.6188 134.3748 1.0000 134.7321 C 0.3812 135.0893 -0.3812 135.0893 -1.0000 134.7321 C -1.6188 134.3748 -2.0000 133.7145 -2.0000 133.0000 L -2.0000 133.0000 " fill-rule="nonzero"></path><path transform="matrix(1,0,0,1,67,17)" stroke="#000000" fill="none" d="M 36.9548 38.9548 C 36.9548 38.2403 37.3360 37.5800 37.9548 37.2227 C 38.5736 36.8655 39.3360 36.8655 39.9548 37.2227 C 40.5736 37.5800 40.9548 38.2403 40.9548 38.9548 C 40.9548 39.6693 40.5736 40.3296 39.9548 40.6868 C 39.3360 41.0441 38.5736 41.0441 37.9548 40.6868 C 37.3360 40.3296 36.9548 39.6693 36.9548 38.9548 L 36.9548 38.9548 " fill-rule="nonzero"></path><path transform="matrix(1,0,0,1,67,17)" stroke="#000000" fill="none" d="M 36.9548 227.0452 C 36.9548 226.3307 37.3360 225.6704 37.9548 225.3132 C 38.5736 224.9559 39.3360 224.9559 39.9548 225.3132 C 40.5736 225.6704 40.9548 226.3307 40.9548 227.0452 C 40.9548 227.7597 40.5736 228.4200 39.9548 228.7773 C 39.3360 229.1345 38.5736 229.1345 37.9548 228.7773 C 37.3360 228.4200 36.9548 227.7597 36.9548 227.0452 L 36.9548 227.0452 " fill-rule="nonzero"></path><path transform="matrix(1,0,0,1,67,17)" stroke="#000000" fill="none" d="M 131.0000 0.0000 C 131.0000 -0.7145 131.3812 -1.3748 132.0000 -1.7321 C 132.6188 -2.0893 133.3812 -2.0893 134.0000 -1.7321 C 134.6188 -1.3748 135.0000 -0.7145 135.0000 0.0000 C 135.0000 0.7145 134.6188 1.3748 134.0000 1.7321 C 133.3812 2.0893 132.6188 2.0893 132.0000 1.7321 C 131.3812 1.3748 131.0000 0.7145 131.0000 -0.0000 L 131.0000 0.0000 " fill-rule="nonzero"></path><path transform="matrix(1,0,0,1,67,17)" stroke="#000000" fill="none" d="M 131.0000 266.0000 C 131.0000 265.2855 131.3812 264.6252 132.0000 264.2680 C 132.6188 263.9107 133.3812 263.9107 134.0000 264.2680 C 134.6188 264.6252 135.0000 265.2855 135.0000 266.0000 C 135.0000 266.7145 134.6188 267.3748 134.0000 267.7321 C 133.3812 268.0893 132.6188 268.0893 132.0000 267.7321 C 131.3812 267.3748 131.0000 266.7145 131.0000 266.0000 L 131.0000 266.0000 " fill-rule="nonzero"></path><path transform="matrix(1,0,0,1,67,17)" stroke="#000000" fill="none" d="M 225.0452 38.9548 C 225.0452 38.2403 225.4264 37.5800 226.0452 37.2227 C 226.6640 36.8655 227.4264 36.8655 228.0452 37.2227 C 228.6640 37.5800 229.0452 38.2403 229.0452 38.9548 C 229.0452 39.6693 228.6640 40.3296 228.0452 40.6868 C 227.4264 41.0441 226.6640 41.0441 226.0452 40.6868 C 225.4264 40.3296 225.0452 39.6693 225.0452 38.9548 L 225.0452 38.9548 " fill-rule="nonzero"></path><path transform="matrix(1,0,0,1,67,17)" stroke="#000000" fill="none" d="M 225.0452 227.0452 C 225.0452 226.3307 225.4264 225.6704 226.0452 225.3132 C 226.6640 224.9559 227.4264 224.9559 228.0452 225.3132 C 228.6640 225.6704 229.0452 226.3307 229.0452 227.0452 C 229.0452 227.7597 228.6640 228.4200 228.0452 228.7773 C 227.4264 229.1345 226.6640 229.1345 226.0452 228.7773 C 225.4264 228.4200 225.0452 227.7597 225.0452 227.0452 L 225.0452 227.0452 " fill-rule="nonzero"></path><path transform="matrix(1,0,0,1,67,17)" stroke="#000000" fill="none" d="M 264.0000 133.0000 C 264.0000 132.2855 264.3812 131.6252 265.0000 131.2680 C 265.6188 130.9107 266.3812 130.9107 267.0000 131.2680 C 267.6188 131.6252 268.0000 132.2855 268.0000 133.0000 C 268.0000 133.7145 267.6188 134.3748 267.0000 134.7321 C 266.3812 135.0893 265.6188 135.0893 265.0000 134.7321 C 264.3812 134.3748 264.0000 133.7145 264.0000 133.0000 L 264.0000 133.0000 " fill-rule="nonzero"></path></svg>