<?xml version="1.0"?>
<!-- Created with xTool Creative Space (https://www.xtool.com/pages/software) -->
<svg xmlns="http://www.w3.org/2000/svg" xmlns:xlink="http://www.w3.org/1999/xlink" xmlns:xcs="https://www.xtool.com/pages/software" version="1.1" preserveAspectRatio="xMinYMin meet" width="309.9999999999986mm" height="309.9999999999985mm" viewBox="45.0000000000008 -4.9999999999992255 309.9999999999986 309.9999999999985" xcs:version="2.5.20"><style>svg * { vector-effect: non-scaling-stroke; stroke-width: 1px; }</style>
<path transform="matrix(1,0,0,1,1.01608e-12,7.4607e-13)" stroke="#000000" fill="none" d="M45,150C45,64.39586377622706 114.39586377622697,-4.999999999999915 199.99999999999991,-4.999999999999943C285.60413622377285,-4.999999999999943 354.99999999999983,64.39586377622702 354.9999999999999,149.99999999999994C354.9999999999999,235.6041362237729 285.6041362237729,304.99999999999994 199.99999999999994,304.99999999999994C114.39586377622702,304.99999999999994 45.00000000000003,235.60413622377297 45,150Z" fill-rule="nonzero"></path><path transform="matrix(1,0,0,1,3.55271e-14,3.55271e-15)" stroke="#000000" fill="none" d="M130.00102233886716,203.98295542341106L108.87980904447136,203.98295542341106L108.87980904447136,159.68677139972453L130.0010223388672,159.68677139972453L130.00102233886716,115.84995542341107L220.0010223388672,115.84995542341107L220.0010223388672,185.84995542341107L130.00102233886716,185.84995542341107M130.00102233886716,185.84995542341107L130.00102233886716,194.25395542341107L173.0010223388672,194.25395542341107L173.0010223388672,255.25395542341107L130.00102233886716,255.25395542341107L130.00102233886716,203.98295542341106" fill-rule="evenodd"></path><rect transform="matrix(1,0,0,1,83.92209,145.5)" stroke="#000000" fill="none" x="0" y="0" width="4.101281716817321" height="9.000000000000002"></rect><rect transform="matrix(1,0,0,1,74,143.5)" stroke="#000000" fill="none" x="0" y="0" width="7.000000077252836" height="12.999999999999847"></rect><path transform="matrix(1,0,0,1,67.000012,17)" stroke="#000000" fill="none" d="M -2.9250 133.0000 C -2.9250 131.9550 -2.3675 130.9894 -1.4625 130.4669 C -0.5575 129.9444 0.5575 129.9444 1.4625 130.4669 C 2.3675 130.9894 2.9250 131.9550 2.9250 133.0000 C 2.9250 134.0450 2.3675 135.0106 1.4625 135.5331 C 0.5575 136.0556 -0.5575 136.0556 -1.4625 135.5331 C -2.3675 135.0106 -2.9250 134.0450 -2.9250 133.0000 L -2.9250 133.0000 " fill-rule="nonzero"></path><path transform="matrix(1,0,0,1,67.000012,17)" stroke="#000000" fill="none" d="M 36.0298 38.9548 C 36.0298 37.9098 36.5873 36.9442 37.4923 36.4217 C 38.3973 35.8992 39.5123 35.8992 40.4173 36.4217 C 41.3223 36.9442 41.8798 37.9098 41.8798 38.9548 C 41.8798 39.9998 41.3223 40.9654 40.4173 41.4879 C 39.5123 42.0104 38.3973 42.0104 37.4923 41.4879 C 36.5873 40.9654 36.0298 39.9998 36.0298 38.9548 L 36.0298 38.9548 " fill-rule="nonzero"></path><path transform="matrix(1,0,0,1,67.000012,17)" stroke="#000000" fill="none" d="M 36.0298 227.0452 C 36.0298 226.0002 36.5873 225.0346 37.4923 224.5121 C 38.3973 223.9896 39.5123 223.9896 40.4173 224.5121 C 41.3223 225.0346 41.8798 226.0002 41.8798 227.0452 C 41.8798 228.0902 41.3223 229.0558 40.4173 229.5783 C 39.5123 230.1008 38.3973 230.1008 37.4923 229.5783 C 36.5873 229.0558 36.0298 228.0902 36.0298 227.0452 L 36.0298 227.0452 " fill-rule="nonzero"></path><path transform="matrix(1,0,0,1,67.000012,17)" stroke="#000000" fill="none" d="M 130.0750 0.0000 C 130.0750 -1.0450 130.6325 -2.0106 131.5375 -2.5331 C 132.4425 -3.0556 133.5575 -3.0556 134.4625 -2.5331 C 135.3675 -2.0106 135.9250 -1.0450 135.9250 0.0000 C 135.9250 1.0450 135.3675 2.0106 134.4625 2.5331 C 133.5575 3.0556 132.4425 3.0556 131.5375 2.5331 C 130.6325 2.0106 130.0750 1.0450 130.0750 -0.0000 L 130.0750 0.0000 " fill-rule="nonzero"></path><path transform="matrix(1,0,0,1,67.000012,17)" stroke="#000000" fill="none" d="M 130.0750 266.0000 C 130.0750 264.9550 130.6325 263.9894 131.5375 263.4669 C 132.4425 262.9444 133.5575 262.9444 134.4625 263.4669 C 135.3675 263.9894 135.9250 264.9550 135.9250 266.0000 C 135.9250 267.0450 135.3675 268.0106 134.4625 268.5331 C 133.5575 269.0556 132.4425 269.0556 131.5375 268.5331 C 130.6325 268.0106 130.0750 267.0450 130.0750 266.0000 L 130.0750 266.0000 " fill-rule="nonzero"></path><path transform="matrix(1,0,0,1,67.000012,17)" stroke="#000000" fill="none" d="M 224.1202 38.9548 C 224.1202 37.9098 224.6777 36.9442 225.5827 36.4217 C 226.4877 35.8992 227.6027 35.8992 228.5077 36.4217 C 229.4127 36.9442 229.9702 37.9098 229.9702 38.9548 C 229.9702 39.9998 229.4127 40.9654 228.5077 41.4879 C 227.6027 42.0104 226.4877 42.0104 225.5827 41.4879 C 224.6777 40.9654 224.1202 39.9998 224.1202 38.9548 L 224.1202 38.9548 " fill-rule="nonzero"></path><path transform="matrix(1,0,0,1,67.000012,17)" stroke="#000000" fill="none" d="M 224.1202 227.0452 C 224.1202 226.0002 224.6777 225.0346 225.5827 224.5121 C 226.4877 223.9896 227.6027 223.9896 228.5077 224.5121 C 229.4127 225.0346 229.9702 226.0002 229.9702 227.0452 C 229.9702 228.0902 229.4127 229.0558 228.5077 229.5783 C 227.6027 230.1008 226.4877 230.1008 225.5827 229.5783 C 224.6777 229.0558 224.1202 228.0902 224.1202 227.0452 L 224.1202 227.0452 " fill-rule="nonzero"></path><path transform="matrix(1,0,0,1,67.000012,17)" stroke="#000000" fill="none" d="M 263.0750 133.0000 C 263.0750 131.9550 263.6325 130.9894 264.5375 130.4669 C 265.4425 129.9444 266.5575 129.9444 267.4625 130.4669 C 268.3675 130.9894 268.9250 131.9550 268.9250 133.0000 C 268.9250 134.0450 268.3675 135.0106 267.4625 135.5331 C 266.5575 136.0556 265.4425 136.0556 264.5375 135.5331 C 263.6325 135.0106 263.0750 134.0450 263.0750 133.0000 L 263.0750 133.0000 " fill-rule="nonzero"></path></svg>