<?xml version="1.0"?>
<!-- Created with xTool Creative Space (https://www.xtool.com/pages/software) -->
<svg xmlns="http://www.w3.org/2000/svg" xmlns:xlink="http://www.w3.org/1999/xlink" xmlns:xcs="https://www.xtool.com/pages/software" version="1.1" preserveAspectRatio="xMinYMin meet" width="310mm" height="310mm" viewBox="44.99999999999995 -4.999999999999989 310 310" xcs:version="2.5.20"><style>svg * { vector-effect: non-scaling-stroke; stroke-width: 1px; }</style>
<path transform="matrix(1,0,0,1,-4.9738e-14,1.06581e-14)" stroke="#000000" fill="none" d="M45,150C45,64.39586377622706 114.39586377622697,-4.999999999999915 199.99999999999991,-4.999999999999943C285.60413622377285,-4.999999999999943 354.99999999999983,64.39586377622702 354.9999999999999,149.99999999999994C354.9999999999999,235.6041362237729 285.6041362237729,304.99999999999994 199.99999999999994,304.99999999999994C114.39586377622702,304.99999999999994 45.00000000000003,235.60413622377297 45,150Z" fill-rule="nonzero"></path><path transform="matrix(0.890323,0,0,0.890323,21.935484,16.451613)" stroke="#000000" fill="none" d="M45,150C45,64.39586377622706 114.39586377622697,-4.999999999999915 199.99999999999991,-4.999999999999943C285.60413622377285,-4.999999999999943 354.99999999999983,64.39586377622702 354.9999999999999,149.99999999999994C354.9999999999999,235.6041362237729 285.6041362237729,304.99999999999994 199.99999999999994,304.99999999999994C114.39586377622702,304.99999999999994 45.00000000000003,235.60413622377297 45,150Z" fill-rule="nonzero"></path></svg>